<svg width="25" height="24" viewBox="0 0 25 24" fill="none" xmlns="http://www.w3.org/2000/svg">
<g clip-path="url(#clip0_1_34)">
<path d="M23.9971 11.5957C23.9971 5.19161 18.8055 0 12.4013 0C5.99716 0 0.805542 5.19161 0.805542 11.5957C0.805542 17.3835 5.04593 22.1808 10.5895 23.0508V14.9477H7.64524V11.5957H10.5895V9.0411C10.5895 6.1349 12.3207 4.52961 14.9694 4.52961C16.2376 4.52961 17.5651 4.75609 17.5651 4.75609V7.60974H16.103C14.6625 7.60974 14.2132 8.50365 14.2132 9.42158V11.5957H17.4292L16.9151 14.9477H14.2132V23.0508C19.7567 22.1808 23.9971 17.3835 23.9971 11.5957Z" fill="#C67A88"/>
</g>
<defs>
<clipPath id="clip0_1_34">
<rect width="24" height="24" fill="white" transform="translate(0.805542)"/>
</clipPath>
</defs>
</svg>
